<?xml version="1.0" encoding="utf-8"?>
<!-- Generator: Adobe Illustrator 26.3.1, SVG Export Plug-In . SVG Version: 6.00 Build 0)  -->
<svg version="1.1" id="Layer_1" xmlns="http://www.w3.org/2000/svg" xmlns:xlink="http://www.w3.org/1999/xlink" x="0px" y="0px"
	 viewBox="0 0 1000 1000" style="enable-background:new 0 0 1000 1000;" xml:space="preserve">
<style type="text/css">
	.st0{fill:#FFFFFF;}
	.st1{fill:#1266B2;}
	.st2{fill:none;stroke:#FF00FF;stroke-width:0.25;stroke-miterlimit:10;}
	.st3{fill:#131E29;}
	.st4{fill:url(#);}
	.st5{fill:#7F7F7F;}
	.st6{fill:#F7BE00;}
</style>
<rect class="st0" width="1000" height="1000"/>
<g>
	<g>
		<path class="st3" d="M574.7,380l-11.5,10.1l-37.3,32.7l-7.6,6.7l-18.2,16l-18.2-16l-7.6-6.7l-20.5-18.2l8.9-8.9h-25.7v25.9l10-10
			l27.4,24.7l-52.6,46.1H420v-52.7h-10v62.8h180V380H574.7z M436.8,482.2l45-39.4l18.2,16l18.2-16l45,39.4H436.8z M580,482.2h-1.5
			l-52.6-46.1l52.6-46.1h1.5V482.2z"/>
	</g>
	<g>
		<path class="st3" d="M373,542.3c9.4,0,16.9,4.7,20.1,13.1h-6.8c-2.4-5.2-7-8.1-13.3-8.1c-9.1,0-15.9,6.6-15.9,17.2
			c0,10.6,6.8,17.2,15.9,17.2c6.3,0,10.9-2.9,13.3-8.1h6.8c-3.2,8.3-10.7,13-20.1,13c-12.1,0-21.6-9.1-21.6-22.1
			C351.3,551.5,360.8,542.3,373,542.3z"/>
		<path class="st3" d="M431,547.5h-17.7V562h15.8v4.7h-15.8v14.9H431v4.7h-23.3v-43.4H431V547.5z"/>
		<path class="st3" d="M479.9,542.8v43.4h-5.7l-22.8-34.5v34.5h-5.7v-43.4h5.7l22.8,34.5v-34.5H479.9z"/>
		<path class="st3" d="M493.1,542.9h29.4v4.6h-11.8v38.8H505v-38.8h-11.9V542.9z"/>
		<path class="st3" d="M549.6,542.9c10.2,0,15.1,5.7,15.1,12.8c0,5.5-3,10.8-10.3,12.4l10.9,18.2h-6.8l-10.3-17.7h-6.8v17.7h-5.7
			v-43.4H549.6z M549.6,547.5h-8.3V564h8.3c6.4,0,9.2-3.5,9.2-8.3C558.8,550.7,556.1,547.5,549.6,547.5z"/>
		<path class="st3" d="M605.3,576.6h-18.9l-3.5,9.6h-6l15.7-43.1h6.5l15.6,43.1h-6L605.3,576.6z M595.9,550.1L588,572h15.7
			L595.9,550.1z"/>
		<path class="st3" d="M633.5,542.9v38.8h15.2v4.6h-20.8v-43.4H633.5z"/>
	</g>
	<g>
		<path class="st3" d="M351.3,600.5h2.1l7.5,16.7l7.5-16.7h2.1v19.3h-2v-15.4l-6.9,15.4h-1.4l-6.9-15.4v15.4h-2V600.5z"/>
		<path class="st3" d="M390.4,615.2h-8.9l-1.7,4.6h-2.1l7.1-19.3h2.2l7.1,19.3h-2.1L390.4,615.2z M385.9,603l-3.9,10.6h7.7
			L385.9,603z"/>
		<path class="st3" d="M401.5,600.2h2v19.6h-2V600.2z"/>
		<path class="st3" d="M414.1,600.2v18h7v1.6h-9v-19.6H414.1z"/>
		<path class="st3" d="M428.1,600.2h2v19.6h-2V600.2z"/>
		<path class="st3" d="M453.5,600.2v19.6h-2l-10.8-16.5v16.5h-2v-19.6h2l10.8,16.4v-16.4H453.5z"/>
		<path class="st3" d="M479.8,606h-2.3c-1.1-2.5-3.5-4.1-6.6-4.1c-4.3,0-7.7,3.1-7.7,8.2s3.3,8.2,7.7,8.2c4.1,0,7.1-2.8,7.4-7.2
			h-8.2v-1.6h10.3v1.4c-0.3,5.2-4.2,9.2-9.5,9.2c-5.5,0-9.7-4.1-9.7-10c0-5.9,4.2-10,9.7-10C475.1,600,478.4,602.2,479.8,606z"/>
		<path class="st3" d="M506,620c-3.9,0-6.5-2.2-6.6-5.2h2.1c0.2,1.6,1.4,3.6,4.5,3.6c2.7,0,4.3-1.6,4.3-3.6c0-5.8-10.8-2.1-10.8-9.5
			c0-3,2.5-5.2,6.3-5.2c3.7,0,6,2.1,6.3,4.8H510c-0.2-1.4-1.5-3.1-4.3-3.1c-2.3,0-4.2,1.2-4.2,3.5c0,5.7,10.8,2.2,10.8,9.5
			C512.3,617.3,510.1,620,506,620z"/>
		<path class="st3" d="M530.5,601.8h-8.3v7.3h7.4v1.6h-7.4v7.4h8.3v1.6h-10.2v-19.6h10.2V601.8z"/>
		<path class="st3" d="M544.4,600.2c4.5,0,6.7,2.5,6.7,5.7c0,2.7-1.5,5-4.8,5.6l5,8.3H549l-4.8-8.2h-3.6v8.2h-2v-19.6H544.4z
			 M544.4,601.9h-3.9v8.2h3.9c3.2,0,4.6-1.7,4.6-4.1C549.1,603.5,547.7,601.9,544.4,601.9z"/>
		<path class="st3" d="M572.6,600.2h2.1l-7.4,19.6H565l-7.4-19.6h2.1l6.4,17.4L572.6,600.2z"/>
		<path class="st3" d="M581.8,600.2h2v19.6h-2V600.2z"/>
		<path class="st3" d="M601.1,600c4.4,0,7.6,2.2,9,5.9h-2.3c-1.1-2.6-3.4-4.2-6.7-4.2c-4.3,0-7.6,3.2-7.6,8.3c0,5.1,3.3,8.3,7.6,8.3
			c3.3,0,5.6-1.6,6.7-4.2h2.3c-1.4,3.7-4.6,5.9-9,5.9c-5.4,0-9.6-4.1-9.6-10C591.5,604.1,595.7,600,601.1,600z"/>
		<path class="st3" d="M628.4,601.8h-8.3v7.3h7.4v1.6h-7.4v7.4h8.3v1.6h-10.2v-19.6h10.2V601.8z"/>
		<path class="st3" d="M642.4,620c-3.9,0-6.5-2.2-6.6-5.2h2.1c0.2,1.6,1.4,3.6,4.5,3.6c2.7,0,4.3-1.6,4.3-3.6
			c0-5.8-10.8-2.1-10.8-9.5c0-3,2.5-5.2,6.3-5.2c3.7,0,6,2.1,6.3,4.8h-2.1c-0.2-1.4-1.5-3.1-4.3-3.1c-2.3,0-4.2,1.2-4.2,3.5
			c0,5.7,10.8,2.2,10.8,9.5C648.7,617.3,646.6,620,642.4,620z"/>
	</g>
</g>
</svg>
