<?xml version="1.0" encoding="utf-8"?>
<!-- Generator: Adobe Illustrator 26.3.1, SVG Export Plug-In . SVG Version: 6.00 Build 0)  -->
<svg version="1.1" id="Layer_1" xmlns="http://www.w3.org/2000/svg" xmlns:xlink="http://www.w3.org/1999/xlink" x="0px" y="0px"
	 viewBox="0 0 2000 1000" style="enable-background:new 0 0 2000 1000;" xml:space="preserve">
<style type="text/css">
	.st0{fill:#FFFFFF;}
	.st1{fill:#1266B2;}
	.st2{fill:none;stroke:#FF00FF;stroke-width:0.25;stroke-miterlimit:10;}
	.st3{fill:#131E29;}
	.st4{fill:url(#);}
	.st5{fill:#7F7F7F;}
	.st6{fill:#F7BE00;}
</style>
<rect class="st0" width="2000" height="1000"/>
<g>
	<path class="st1" d="M1074.7,380l-11.5,10.1l-37.3,32.7l-7.6,6.7l-18.2,16l-18.2-16l-7.6-6.7l-20.5-18.2l8.9-8.9h-25.7v25.9l10-10
		l27.4,24.7l-52.6,46.1H920v-52.7h-10v62.8h180V380H1074.7z M936.8,482.2l45-39.4l18.2,16l18.2-16l45,39.4H936.8z M1080,482.2h-1.5
		l-52.6-46.1l52.6-46.1h1.5V482.2z"/>
</g>
<g>
	<path class="st3" d="M873,542.3c9.4,0,16.9,4.7,20.1,13.1h-6.8c-2.4-5.2-7-8.1-13.3-8.1c-9.1,0-15.9,6.6-15.9,17.2
		c0,10.6,6.8,17.2,15.9,17.2c6.3,0,10.9-2.9,13.3-8.1h6.8c-3.2,8.3-10.7,13-20.1,13c-12.1,0-21.6-9.1-21.6-22.1
		C851.3,551.5,860.8,542.3,873,542.3z"/>
	<path class="st3" d="M931,547.5h-17.7V562h15.8v4.7h-15.8v14.9H931v4.7h-23.3v-43.4H931V547.5z"/>
	<path class="st3" d="M979.9,542.8v43.4h-5.7l-22.8-34.5v34.5h-5.7v-43.4h5.7l22.8,34.5v-34.5H979.9z"/>
	<path class="st3" d="M993.1,542.9h29.4v4.6h-11.8v38.8h-5.7v-38.8h-11.9V542.9z"/>
	<path class="st3" d="M1049.6,542.9c10.2,0,15.1,5.7,15.1,12.8c0,5.5-3,10.8-10.3,12.4l10.9,18.2h-6.8l-10.3-17.7h-6.8v17.7h-5.7
		v-43.4H1049.6z M1049.6,547.5h-8.3V564h8.3c6.4,0,9.2-3.5,9.2-8.3C1058.8,550.7,1056.1,547.5,1049.6,547.5z"/>
	<path class="st3" d="M1105.3,576.6h-18.9l-3.5,9.6h-6l15.7-43.1h6.5l15.6,43.1h-6L1105.3,576.6z M1095.9,550.1L1088,572h15.7
		L1095.9,550.1z"/>
	<path class="st3" d="M1133.5,542.9v38.8h15.2v4.6h-20.8v-43.4H1133.5z"/>
</g>
<g>
	<path class="st5" d="M851.3,600.5h2.1l7.5,16.7l7.5-16.7h2.1v19.3h-2v-15.4l-6.9,15.4h-1.4l-6.9-15.4v15.4h-2V600.5z"/>
	<path class="st5" d="M890.4,615.2h-8.9l-1.7,4.6h-2.1l7.1-19.3h2.2l7.1,19.3h-2.1L890.4,615.2z M885.9,603l-3.9,10.6h7.7L885.9,603
		z"/>
	<path class="st5" d="M901.5,600.2h2v19.6h-2V600.2z"/>
	<path class="st5" d="M914.1,600.2v18h7v1.6h-9v-19.6H914.1z"/>
	<path class="st5" d="M928.1,600.2h2v19.6h-2V600.2z"/>
	<path class="st5" d="M953.5,600.2v19.6h-2l-10.8-16.5v16.5h-2v-19.6h2l10.8,16.4v-16.4H953.5z"/>
	<path class="st5" d="M979.8,606h-2.3c-1.1-2.5-3.5-4.1-6.6-4.1c-4.3,0-7.7,3.1-7.7,8.2s3.3,8.2,7.7,8.2c4.1,0,7.1-2.8,7.4-7.2h-8.2
		v-1.6h10.3v1.4c-0.3,5.2-4.2,9.2-9.5,9.2c-5.5,0-9.7-4.1-9.7-10c0-5.9,4.2-10,9.7-10C975.1,600,978.4,602.2,979.8,606z"/>
	<path class="st5" d="M1006,620c-3.9,0-6.5-2.2-6.6-5.2h2.1c0.2,1.6,1.4,3.6,4.5,3.6c2.7,0,4.3-1.6,4.3-3.6c0-5.8-10.8-2.1-10.8-9.5
		c0-3,2.5-5.2,6.3-5.2c3.7,0,6,2.1,6.3,4.8h-2.1c-0.2-1.4-1.5-3.1-4.3-3.1c-2.3,0-4.2,1.2-4.2,3.5c0,5.7,10.8,2.2,10.8,9.5
		C1012.3,617.3,1010.1,620,1006,620z"/>
	<path class="st5" d="M1030.5,601.8h-8.3v7.3h7.4v1.6h-7.4v7.4h8.3v1.6h-10.2v-19.6h10.2V601.8z"/>
	<path class="st5" d="M1044.4,600.2c4.5,0,6.7,2.5,6.7,5.7c0,2.7-1.5,5-4.8,5.6l5,8.3h-2.4l-4.8-8.2h-3.6v8.2h-2v-19.6H1044.4z
		 M1044.4,601.9h-3.9v8.2h3.9c3.2,0,4.6-1.7,4.6-4.1C1049.1,603.5,1047.7,601.9,1044.4,601.9z"/>
	<path class="st5" d="M1072.6,600.2h2.1l-7.4,19.6h-2.2l-7.4-19.6h2.1l6.4,17.4L1072.6,600.2z"/>
	<path class="st5" d="M1081.8,600.2h2v19.6h-2V600.2z"/>
	<path class="st5" d="M1101.1,600c4.4,0,7.6,2.2,9,5.9h-2.3c-1.1-2.6-3.4-4.2-6.7-4.2c-4.3,0-7.6,3.2-7.6,8.3c0,5.1,3.3,8.3,7.6,8.3
		c3.3,0,5.6-1.6,6.7-4.2h2.3c-1.4,3.7-4.6,5.9-9,5.9c-5.4,0-9.6-4.1-9.6-10C1091.5,604.1,1095.7,600,1101.1,600z"/>
	<path class="st5" d="M1128.4,601.8h-8.3v7.3h7.4v1.6h-7.4v7.4h8.3v1.6h-10.2v-19.6h10.2V601.8z"/>
	<path class="st5" d="M1142.4,620c-3.9,0-6.5-2.2-6.6-5.2h2.1c0.2,1.6,1.4,3.6,4.5,3.6c2.7,0,4.3-1.6,4.3-3.6
		c0-5.8-10.8-2.1-10.8-9.5c0-3,2.5-5.2,6.3-5.2c3.7,0,6,2.1,6.3,4.8h-2.1c-0.2-1.4-1.5-3.1-4.3-3.1c-2.3,0-4.2,1.2-4.2,3.5
		c0,5.7,10.8,2.2,10.8,9.5C1148.7,617.3,1146.6,620,1142.4,620z"/>
</g>
</svg>
