<?xml version="1.0" encoding="utf-8"?>
<!-- Generator: Adobe Illustrator 26.3.1, SVG Export Plug-In . SVG Version: 6.00 Build 0)  -->
<svg version="1.1" id="Layer_1" xmlns="http://www.w3.org/2000/svg" xmlns:xlink="http://www.w3.org/1999/xlink" x="0px" y="0px"
	 viewBox="0 0 1000 1000" style="enable-background:new 0 0 1000 1000;" xml:space="preserve">
<style type="text/css">
	.st0{fill:none;}
	.st1{fill:#FFFFFF;}
	.st2{fill:#1266B2;}
	.st3{fill:none;stroke:#FF00FF;stroke-width:0.25;stroke-miterlimit:10;}
	.st4{fill:#131E29;}
	.st5{fill:url(#SVGID_1_);}
	.st6{fill:#7F7F7F;}
	.st7{fill:#F7BE00;}
</style>
<pattern  x="-3257.1" width="200" height="249.6" patternUnits="userSpaceOnUse" id="New_Pattern" viewBox="77.8 -298.1 200 249.6" style="overflow:visible;">
	<g>
		<rect x="77.8" y="-298.1" class="st0" width="200" height="249.6"/>
		<path class="st1" d="M355.5-97V0L200,0v-54.2h8.7v45.5h1.3l45.4-39.8l-23.7-21.4l-8.6,8.7v-22.3h22.2l-7.7,7.7l17.8,15.7l6.6,5.8
			l15.7,13.8l15.7-13.8l6.6-5.8l32.3-28.3l10-8.7H355.5z M332.4-8.7l-38.9-34l-15.7,13.8L262-42.7l-38.8,34H332.4z M346.9-88.3h-1.3
			l-45.5,39.8l45.5,39.8h1.3V-88.3z"/>
		<path class="st1" d="M155.5-97V0L0,0l0-54.2h8.7v45.5H10l45.4-39.8L31.7-69.9l-8.6,8.7v-22.3h22.2l-7.7,7.7l17.8,15.7l6.6,5.8
			l15.7,13.8l15.7-13.8l6.6-5.8l32.3-28.3l10-8.7H155.5z M132.4-8.7l-38.9-34L77.8-28.9L62-42.7l-38.8,34H132.4z M146.9-88.3h-1.3
			l-45.5,39.8l45.5,39.8h1.3V-88.3z"/>
		<path class="st1" d="M255.5-221.8v97H100V-179h8.7v45.5h1.3l45.4-39.8l-23.7-21.4l-8.6,8.7v-22.3h22.2l-7.7,7.7l17.8,15.7l6.6,5.8
			l15.7,13.8l15.7-13.8l6.6-5.8l32.3-28.3l10-8.7H255.5z M232.4-133.5l-38.9-34l-15.7,13.8L162-167.5l-38.8,34H232.4z M246.9-213.1
			h-1.3l-45.5,39.8l45.5,39.8h1.3V-213.1z"/>
		<path class="st1" d="M355.5-346.6v97H200v-54.2h8.7v45.5h1.3l45.4-39.8l-23.7-21.4l-8.6,8.7v-22.3h22.2l-7.7,7.7l17.8,15.7
			l6.6,5.8l15.7,13.8l15.7-13.8l6.6-5.8l32.3-28.3l10-8.7H355.5z M332.4-258.3l-38.9-34l-15.7,13.8L262-292.3l-38.8,34H332.4z
			 M346.9-337.9h-1.3l-45.5,39.8l45.5,39.8h1.3V-337.9z"/>
		<path class="st1" d="M155.5-346.6v97H0l0-54.2h8.7v45.5H10l45.4-39.8l-23.7-21.4l-8.6,8.7v-22.3h22.2l-7.7,7.7l17.8,15.7l6.6,5.8
			l15.7,13.8l15.7-13.8l6.6-5.8l32.3-28.3l10-8.7H155.5z M132.4-258.3l-38.9-34l-15.7,13.8L62-292.3l-38.8,34H132.4z M146.9-337.9
			h-1.3l-45.5,39.8l45.5,39.8h1.3V-337.9z"/>
	</g>
</pattern>
<rect class="st4" width="1000" height="1000"/>
<pattern  id="SVGID_1_" xlink:href="#New_Pattern" patternTransform="matrix(0.5 0 0 0.5 -1875.4039 -3392.6624)">
</pattern>
<rect class="st5" width="1000" height="1000"/>
</svg>
