<?xml version="1.0" encoding="utf-8"?>
<!-- Generator: Adobe Illustrator 26.3.1, SVG Export Plug-In . SVG Version: 6.00 Build 0)  -->
<svg version="1.1" id="Layer_1" xmlns="http://www.w3.org/2000/svg" xmlns:xlink="http://www.w3.org/1999/xlink" x="0px" y="0px"
	 viewBox="0 0 1500 250" style="enable-background:new 0 0 1500 250;" xml:space="preserve">
<style type="text/css">
	.st0{fill:#FFFFFF;}
	.st1{fill:#1266B2;}
	.st2{fill:none;stroke:#FF00FF;stroke-width:0.25;stroke-miterlimit:10;}
	.st3{fill:#131E29;}
	.st4{fill:url(#);}
	.st5{fill:#7F7F7F;}
	.st6{fill:#F7BE00;}
	.st7{clip-path:url(#SVGID_00000062168840418122832050000001561088102096602537_);}
	.st8{fill:#0019FF;}
	.st9{clip-path:url(#SVGID_00000046313555494423612650000007381001606573448100_);}
</style>
<g>
	<defs>
		<rect id="SVGID_1_" x="-250" width="2000" height="250"/>
	</defs>
	<clipPath id="SVGID_00000000901122632477253660000011036370150983988926_">
		<use xlink:href="#SVGID_1_"  style="overflow:visible;"/>
	</clipPath>
	<g style="clip-path:url(#SVGID_00000000901122632477253660000011036370150983988926_);">
		<polygon points="672.7,250 -403.6,250 -248.2,0 828.1,0 		"/>
		<polygon class="st8" points="1748.2,250 671.9,250 827.3,0 1903.6,0 		"/>
	</g>
</g>
<g>
	<path class="st0" d="M669.3,82.8l23.3,7c-1.6,6.5-4,12-7.4,16.3c-3.4,4.4-7.5,7.7-12.5,9.9s-11.3,3.3-19,3.3
		c-9.3,0-17-1.4-22.9-4.1s-11-7.5-15.3-14.3c-4.3-6.8-6.4-15.6-6.4-26.2c0-14.2,3.8-25.1,11.3-32.8c7.6-7.6,18.3-11.4,32.1-11.4
		c10.8,0,19.3,2.2,25.5,6.6c6.2,4.4,10.8,11.1,13.8,20.2l-23.4,5.2c-0.8-2.6-1.7-4.5-2.6-5.7c-1.5-2-3.3-3.6-5.4-4.7
		c-2.1-1.1-4.6-1.6-7.2-1.6c-6,0-10.6,2.4-13.8,7.3c-2.4,3.6-3.6,9.2-3.6,16.9c0,9.5,1.4,16,4.3,19.6s7,5.3,12.2,5.3
		c5.1,0,8.9-1.4,11.5-4.3C666.3,92.4,668.2,88.2,669.3,82.8z"/>
	<path class="st0" d="M705.2,32.1h34.9l13.5,52.3l13.4-52.3h34.9V118h-21.7V52.5L763.3,118h-19.7l-16.7-65.5V118h-21.7V32.1z"/>
	<path class="st0" d="M814.1,89.5l25.3-1.6c0.5,4.1,1.7,7.2,3.3,9.4c2.7,3.5,6.6,5.2,11.7,5.2c3.8,0,6.7-0.9,8.8-2.7
		c2.1-1.8,3.1-3.8,3.1-6.2c0-2.2-1-4.2-2.9-6c-2-1.8-6.5-3.4-13.6-5c-11.6-2.6-19.9-6.1-24.9-10.4c-5-4.3-7.5-9.9-7.5-16.6
		c0-4.4,1.3-8.6,3.8-12.5c2.6-3.9,6.4-7,11.5-9.3c5.1-2.2,12.2-3.4,21.1-3.4c11,0,19.3,2,25.1,6.1c5.8,4.1,9.2,10.6,10.3,19.5
		l-25,1.5c-0.7-3.9-2.1-6.7-4.2-8.4c-2.1-1.8-5.1-2.6-8.8-2.6c-3.1,0-5.4,0.7-7,2c-1.6,1.3-2.3,2.9-2.3,4.8c0,1.4,0.6,2.6,1.9,3.7
		c1.2,1.1,4.2,2.2,8.9,3.2c11.6,2.5,19.9,5,24.9,7.6c5,2.6,8.7,5.7,11,9.5c2.3,3.8,3.4,8,3.4,12.7c0,5.5-1.5,10.6-4.6,15.2
		c-3,4.6-7.3,8.2-12.8,10.6c-5.5,2.4-12.4,3.6-20.7,3.6c-14.6,0-24.7-2.8-30.4-8.4S814.9,98.2,814.1,89.5z"/>
</g>
<g>
	<path class="st0" d="M187.7,180.1l15.1,4.6c-1,4.2-2.6,7.8-4.8,10.6c-2.2,2.8-4.9,5-8.1,6.4s-7.4,2.2-12.4,2.2
		c-6.1,0-11-0.9-14.9-2.6c-3.8-1.8-7.2-4.9-10-9.3c-2.8-4.4-4.2-10.1-4.2-17.1c0-9.2,2.5-16.3,7.4-21.3c4.9-5,11.9-7.4,20.9-7.4
		c7,0,12.6,1.4,16.6,4.3c4,2.8,7,7.2,9,13.1l-15.2,3.4c-0.5-1.7-1.1-2.9-1.7-3.7c-1-1.3-2.1-2.3-3.5-3c-1.4-0.7-3-1.1-4.7-1.1
		c-3.9,0-6.9,1.6-9,4.7c-1.6,2.3-2.4,6-2.4,11c0,6.2,0.9,10.4,2.8,12.7c1.9,2.3,4.5,3.4,7.9,3.4c3.3,0,5.8-0.9,7.5-2.8
		C185.7,186.3,186.9,183.6,187.7,180.1z"/>
	<path class="st0" d="M255,186.5H224c0.3,2.5,1,4.3,2,5.6c1.5,1.8,3.5,2.6,5.9,2.6c1.5,0,3-0.4,4.3-1.1c0.8-0.5,1.7-1.3,2.7-2.6
		l15.3,1.4c-2.3,4.1-5.2,7-8.5,8.7c-3.3,1.8-8,2.6-14.2,2.6c-5.4,0-9.6-0.8-12.6-2.3c-3.1-1.5-5.6-3.9-7.6-7.2c-2-3.3-3-7.2-3-11.6
		c0-6.3,2-11.4,6.1-15.3c4-3.9,9.6-5.9,16.8-5.9c5.8,0,10.4,0.9,13.7,2.6s5.9,4.3,7.7,7.6s2.6,7.7,2.6,13V186.5z M239.3,179.1
		c-0.3-3-1.1-5.1-2.4-6.4c-1.3-1.3-3-1.9-5.2-1.9c-2.5,0-4.4,1-5.9,2.9c-0.9,1.2-1.5,3-1.8,5.4H239.3z"/>
	<path class="st0" d="M262.2,162.5h14.4v6.6c2.2-2.7,4.3-4.6,6.6-5.8c2.2-1.2,4.9-1.7,8.1-1.7c4.3,0,7.6,1.3,10.1,3.8
		c2.4,2.6,3.6,6.5,3.6,11.8v25.7h-15.6v-22.2c0-2.5-0.5-4.3-1.4-5.4s-2.3-1.6-4-1.6c-1.9,0-3.4,0.7-4.6,2.1s-1.8,4-1.8,7.7v19.4
		h-15.5V162.5z"/>
	<path class="st0" d="M332.9,147.1v15.4h8.5v11.3h-8.5v14.3c0,1.7,0.2,2.9,0.5,3.4c0.5,0.9,1.4,1.3,2.7,1.3c1.1,0,2.7-0.3,4.8-1
		l1.1,10.7c-3.8,0.8-7.4,1.3-10.7,1.3c-3.9,0-6.7-0.5-8.5-1.5s-3.2-2.5-4.1-4.5c-0.9-2-1.3-5.3-1.3-9.8v-14.2h-5.7v-11.3h5.7V155
		L332.9,147.1z"/>
	<path class="st0" d="M349,162.5h14.5v6.6c1.4-2.9,2.8-4.8,4.3-5.9s3.3-1.6,5.5-1.6c2.3,0,4.8,0.7,7.5,2.1l-4.8,11
		c-1.8-0.8-3.3-1.1-4.3-1.1c-2,0-3.6,0.8-4.7,2.5c-1.6,2.4-2.4,6.8-2.4,13.3v13.6H349V162.5z"/>
	<path class="st0" d="M398.9,175.6l-14.8-1.6c0.6-2.6,1.4-4.6,2.4-6.1c1.1-1.5,2.6-2.8,4.6-3.9c1.4-0.8,3.4-1.4,5.9-1.8
		s5.2-0.6,8.1-0.6c4.6,0,8.4,0.3,11.2,0.8s5.2,1.6,7,3.3c1.3,1.1,2.4,2.8,3.1,4.9c0.8,2.1,1.1,4.1,1.1,6v17.9c0,1.9,0.1,3.4,0.4,4.5
		c0.2,1.1,0.8,2.5,1.6,4.1h-14.5c-0.6-1-1-1.8-1.1-2.4c-0.2-0.5-0.4-1.4-0.5-2.6c-2,2-4,3.4-6.1,4.2c-2.7,1.1-5.9,1.7-9.6,1.7
		c-4.8,0-8.5-1.1-11-3.4c-2.5-2.2-3.8-5-3.8-8.3c0-3.1,0.9-5.6,2.7-7.6s5.1-3.5,10-4.4c5.8-1.2,9.6-2,11.3-2.5
		c1.7-0.5,3.6-1.1,5.5-1.8c0-1.9-0.4-3.2-1.2-4s-2.2-1.1-4.2-1.1c-2.5,0-4.4,0.4-5.7,1.2C400.3,172.6,399.5,173.8,398.9,175.6z
		 M412.3,183.7c-2.1,0.8-4.4,1.4-6.7,2c-3.1,0.8-5.1,1.7-6,2.5c-0.9,0.8-1.3,1.8-1.3,2.9c0,1.2,0.4,2.2,1.3,3
		c0.9,0.8,2.1,1.2,3.8,1.2c1.7,0,3.3-0.4,4.8-1.3s2.5-1.9,3.2-3.1c0.6-1.2,0.9-2.8,0.9-4.7V183.7z"/>
	<path class="st0" d="M437.3,147.1h15.5v55.8h-15.5V147.1z"/>
	<path class="st0" d="M489.6,147.1h22.7l8.8,34l8.7-34h22.7v55.8h-14.1v-42.6l-10.9,42.6h-12.8l-10.9-42.6v42.6h-14.1V147.1z"/>
	<path class="st0" d="M576.5,175.6l-14.8-1.6c0.6-2.6,1.4-4.6,2.4-6.1c1.1-1.5,2.6-2.8,4.6-3.9c1.4-0.8,3.4-1.4,5.9-1.8
		s5.2-0.6,8.1-0.6c4.6,0,8.4,0.3,11.2,0.8s5.2,1.6,7,3.3c1.3,1.1,2.4,2.8,3.1,4.9c0.8,2.1,1.1,4.1,1.1,6v17.9c0,1.9,0.1,3.4,0.4,4.5
		c0.2,1.1,0.8,2.5,1.6,4.1h-14.5c-0.6-1-1-1.8-1.1-2.4c-0.2-0.5-0.4-1.4-0.5-2.6c-2,2-4,3.4-6.1,4.2c-2.7,1.1-5.9,1.7-9.6,1.7
		c-4.8,0-8.5-1.1-11-3.4c-2.5-2.2-3.8-5-3.8-8.3c0-3.1,0.9-5.6,2.7-7.6s5.1-3.5,10-4.4c5.8-1.2,9.6-2,11.3-2.5
		c1.7-0.5,3.6-1.1,5.5-1.8c0-1.9-0.4-3.2-1.2-4s-2.2-1.1-4.2-1.1c-2.5,0-4.4,0.4-5.7,1.2C577.9,172.6,577.1,173.8,576.5,175.6z
		 M590,183.7c-2.1,0.8-4.4,1.4-6.7,2c-3.1,0.8-5.1,1.7-6,2.5c-0.9,0.8-1.3,1.8-1.3,2.9c0,1.2,0.4,2.2,1.3,3c0.9,0.8,2.1,1.2,3.8,1.2
		c1.7,0,3.3-0.4,4.8-1.3s2.5-1.9,3.2-3.1c0.6-1.2,0.9-2.8,0.9-4.7V183.7z"/>
	<path class="st0" d="M615,147.1h15.5v10.5H615V147.1z M615,162.5h15.5v40.4H615V162.5z"/>
	<path class="st0" d="M640.9,147.1h15.5v55.8h-15.5V147.1z"/>
	<path class="st0" d="M666.9,147.1h15.5v10.5h-15.5V147.1z M666.9,162.5h15.5v40.4h-15.5V162.5z"/>
	<path class="st0" d="M692.3,162.5h14.4v6.6c2.2-2.7,4.3-4.6,6.6-5.8c2.2-1.2,4.9-1.7,8.1-1.7c4.3,0,7.6,1.3,10.1,3.8
		c2.4,2.6,3.6,6.5,3.6,11.8v25.7h-15.6v-22.2c0-2.5-0.5-4.3-1.4-5.4s-2.3-1.6-4-1.6c-1.9,0-3.4,0.7-4.6,2.1s-1.8,4-1.8,7.7v19.4
		h-15.5V162.5z"/>
	<path class="st0" d="M772.5,162.5H787v38.2l0,1.8c0,2.5-0.5,5-1.6,7.3c-1.1,2.3-2.5,4.2-4.3,5.6c-1.8,1.4-4.1,2.5-6.8,3.1
		s-5.9,1-9.5,1c-8.1,0-13.7-1.2-16.7-3.7s-4.6-5.7-4.6-9.8c0-0.5,0-1.2,0.1-2.1l15,1.7c0.4,1.4,1,2.4,1.8,2.9
		c1.1,0.8,2.6,1.2,4.3,1.2c2.2,0,3.9-0.6,5-1.8c1.1-1.2,1.7-3.3,1.7-6.2v-6.1c-1.5,1.8-3,3.1-4.6,3.9c-2.4,1.3-5,1.9-7.7,1.9
		c-5.4,0-9.8-2.4-13.1-7.1c-2.4-3.4-3.5-7.8-3.5-13.3c0-6.3,1.5-11.1,4.6-14.4s7-5,12-5c3.1,0,5.7,0.5,7.8,1.6s4,2.8,5.7,5.3V162.5z
		 M757.9,182.1c0,2.9,0.6,5.1,1.9,6.5c1.2,1.4,2.9,2.1,4.9,2.1c1.9,0,3.5-0.7,4.9-2.2c1.3-1.5,2-3.7,2-6.6s-0.7-5.2-2.1-6.8
		c-1.4-1.6-3-2.3-5-2.3s-3.6,0.7-4.7,2.2C758.5,176.4,757.9,178.8,757.9,182.1z"/>
	<path class="st0" d="M820.4,184.5l16.4-1c0.4,2.7,1.1,4.7,2.2,6.1c1.8,2.3,4.3,3.4,7.6,3.4c2.5,0,4.4-0.6,5.7-1.7
		c1.3-1.2,2-2.5,2-4c0-1.4-0.6-2.7-1.9-3.9s-4.2-2.2-8.8-3.2c-7.6-1.7-13-4-16.2-6.8c-3.2-2.8-4.9-6.4-4.9-10.8
		c0-2.9,0.8-5.6,2.5-8.1c1.7-2.6,4.2-4.6,7.5-6c3.3-1.5,7.9-2.2,13.7-2.2c7.1,0,12.6,1.3,16.3,4c3.7,2.7,6,6.9,6.7,12.7l-16.3,1
		c-0.4-2.5-1.3-4.3-2.7-5.5c-1.4-1.1-3.3-1.7-5.7-1.7c-2,0-3.5,0.4-4.5,1.3c-1,0.9-1.5,1.9-1.5,3.1c0,0.9,0.4,1.7,1.3,2.4
		c0.8,0.7,2.7,1.4,5.8,2.1c7.5,1.6,12.9,3.3,16.2,4.9c3.3,1.7,5.6,3.7,7.1,6.2c1.5,2.5,2.2,5.2,2.2,8.3c0,3.6-1,6.9-3,9.9
		s-4.7,5.3-8.3,6.9c-3.6,1.6-8,2.3-13.4,2.3c-9.5,0-16.1-1.8-19.7-5.5S820.9,190.1,820.4,184.5z"/>
	<path class="st0" d="M923.6,186.5h-31.1c0.3,2.5,1,4.3,2,5.6c1.5,1.8,3.5,2.6,5.9,2.6c1.5,0,3-0.4,4.3-1.1c0.8-0.5,1.7-1.3,2.7-2.6
		l15.3,1.4c-2.3,4.1-5.2,7-8.5,8.7c-3.3,1.8-8,2.6-14.2,2.6c-5.4,0-9.6-0.8-12.6-2.3c-3.1-1.5-5.6-3.9-7.6-7.2c-2-3.3-3-7.2-3-11.6
		c0-6.3,2-11.4,6.1-15.3s9.6-5.9,16.8-5.9c5.8,0,10.4,0.9,13.7,2.6s5.9,4.3,7.7,7.6s2.6,7.7,2.6,13V186.5z M907.9,179.1
		c-0.3-3-1.1-5.1-2.4-6.4c-1.3-1.3-3-1.9-5.2-1.9c-2.5,0-4.4,1-5.9,2.9c-0.9,1.2-1.5,3-1.8,5.4H907.9z"/>
	<path class="st0" d="M930.9,162.5h14.5v6.6c1.4-2.9,2.8-4.8,4.3-5.9c1.5-1.1,3.3-1.6,5.5-1.6c2.3,0,4.8,0.7,7.5,2.1l-4.8,11
		c-1.8-0.8-3.3-1.1-4.3-1.1c-2,0-3.6,0.8-4.7,2.5c-1.6,2.4-2.4,6.8-2.4,13.3v13.6h-15.6V162.5z"/>
	<path class="st0" d="M965.3,162.5h16.1l7.8,25.6l8.1-25.6h15.6l-17.2,40.4h-13.7L965.3,162.5z"/>
	<path class="st0" d="M1018.1,147.1h15.5v10.5h-15.5V147.1z M1018.1,162.5h15.5v40.4h-15.5V162.5z"/>
	<path class="st0" d="M1073.7,187.1l14.7,1.7c-0.8,3.1-2.1,5.7-4,8c-1.9,2.2-4.2,4-7.1,5.2c-2.9,1.2-6.5,1.9-11,1.9
		c-4.3,0-7.9-0.4-10.7-1.2c-2.9-0.8-5.3-2.1-7.4-3.9c-2.1-1.8-3.7-3.9-4.8-6.3s-1.8-5.6-1.8-9.6c0-4.2,0.7-7.6,2.1-10.4
		c1-2,2.5-3.8,4.3-5.5c1.8-1.6,3.7-2.8,5.6-3.6c3-1.2,6.9-1.9,11.6-1.9c6.6,0,11.6,1.2,15.1,3.5c3.5,2.4,5.9,5.8,7.3,10.4l-14.6,1.9
		c-0.5-1.7-1.3-3-2.5-3.9c-1.2-0.9-2.8-1.3-4.9-1.3c-2.6,0-4.6,0.9-6.2,2.8c-1.6,1.8-2.4,4.6-2.4,8.3c0,3.3,0.8,5.8,2.4,7.6
		s3.6,2.6,6,2.6c2,0,3.7-0.5,5.1-1.6S1073,189.2,1073.7,187.1z"/>
	<path class="st0" d="M1140.5,186.5h-31.1c0.3,2.5,1,4.3,2,5.6c1.5,1.8,3.5,2.6,5.9,2.6c1.5,0,3-0.4,4.3-1.1
		c0.8-0.5,1.7-1.3,2.7-2.6l15.3,1.4c-2.3,4.1-5.2,7-8.5,8.7c-3.3,1.8-8,2.6-14.2,2.6c-5.4,0-9.6-0.8-12.6-2.3
		c-3.1-1.5-5.6-3.9-7.6-7.2c-2-3.3-3-7.2-3-11.6c0-6.3,2-11.4,6.1-15.3s9.6-5.9,16.8-5.9c5.8,0,10.4,0.9,13.7,2.6s5.9,4.3,7.7,7.6
		s2.6,7.7,2.6,13V186.5z M1124.7,179.1c-0.3-3-1.1-5.1-2.4-6.4c-1.3-1.3-3-1.9-5.2-1.9c-2.5,0-4.4,1-5.9,2.9c-0.9,1.2-1.5,3-1.8,5.4
		H1124.7z"/>
	<path class="st0" d="M1144.8,191.7l15.4-1.4c0.6,1.8,1.5,3.1,2.7,3.9s2.7,1.2,4.6,1.2c2.1,0,3.7-0.4,4.8-1.3
		c0.9-0.7,1.3-1.5,1.3-2.5c0-1.1-0.6-2-1.8-2.6c-0.8-0.4-3.1-1-6.7-1.6c-5.4-0.9-9.1-1.8-11.2-2.6c-2.1-0.8-3.9-2.1-5.3-4.1
		c-1.4-1.9-2.2-4.1-2.2-6.5c0-2.7,0.8-5,2.3-6.9s3.7-3.4,6.4-4.3c2.7-1,6.4-1.4,10.9-1.4c4.8,0,8.4,0.4,10.7,1.1
		c2.3,0.7,4.2,1.9,5.8,3.4s2.8,3.6,3.8,6.3l-14.7,1.4c-0.4-1.3-1-2.2-1.9-2.9c-1.2-0.8-2.7-1.2-4.4-1.2c-1.8,0-3,0.3-3.8,0.9
		c-0.8,0.6-1.2,1.4-1.2,2.3c0,1,0.5,1.7,1.5,2.2c1,0.5,3.2,1,6.6,1.4c5.2,0.6,9,1.4,11.5,2.4s4.4,2.5,5.8,4.5c1.3,1.9,2,4,2,6.4
		c0,2.3-0.7,4.6-2.1,6.8c-1.4,2.2-3.6,4-6.7,5.3c-3,1.3-7.2,2-12.4,2c-7.4,0-12.7-1.1-15.8-3.2S1145.7,195.6,1144.8,191.7z"/>
	<path class="st0" d="M1222.3,147.1h17.3v42.1h26.9v13.7h-44.2V147.1z"/>
	<path class="st0" d="M1292,147.1v15.4h8.5v11.3h-8.5v14.3c0,1.7,0.2,2.9,0.5,3.4c0.5,0.9,1.4,1.3,2.7,1.3c1.1,0,2.7-0.3,4.8-1
		l1.1,10.7c-3.8,0.8-7.4,1.3-10.7,1.3c-3.9,0-6.7-0.5-8.5-1.5s-3.2-2.5-4.1-4.5c-0.9-2-1.3-5.3-1.3-9.8v-14.2h-5.7v-11.3h5.7V155
		L1292,147.1z"/>
	<path class="st0" d="M1350.5,147.1v55.8H1336v-6c-2,2.5-3.9,4.3-5.6,5.1c-2.2,1.2-4.7,1.8-7.5,1.8c-5.5,0-9.7-2.1-12.6-6.3
		c-2.9-4.2-4.4-9.3-4.4-15.3c0-6.7,1.6-11.8,4.8-15.4c3.2-3.6,7.3-5.3,12.2-5.3c2.4,0,4.6,0.4,6.6,1.2c2,0.8,3.7,2,5.2,3.7v-19.3
		H1350.5z M1334.9,182.6c0-3.2-0.7-5.5-2-7.1c-1.3-1.6-3-2.3-5.1-2.3c-1.8,0-3.3,0.7-4.5,2.2s-1.8,4-1.8,7.5c0,3.3,0.6,5.7,1.9,7.3
		c1.3,1.5,2.8,2.3,4.7,2.3c2,0,3.6-0.8,5-2.3S1334.9,186.1,1334.9,182.6z"/>
</g>
</svg>
