<?xml version="1.0" encoding="utf-8"?>
<!-- Generator: Adobe Illustrator 26.3.1, SVG Export Plug-In . SVG Version: 6.00 Build 0)  -->
<svg version="1.1" id="Layer_1" xmlns="http://www.w3.org/2000/svg" xmlns:xlink="http://www.w3.org/1999/xlink" x="0px" y="0px"
	 viewBox="0 0 2000 1000" style="enable-background:new 0 0 2000 1000;" xml:space="preserve">
<style type="text/css">
	.st0{fill:#FFFFFF;}
	.st1{fill:#1266B2;}
	.st2{fill:none;stroke:#FF00FF;stroke-width:0.25;stroke-miterlimit:10;}
	.st3{fill:#131E29;}
	.st4{fill:url(#);}
	.st5{fill:#7F7F7F;}
	.st6{fill:#F7BE00;}
</style>
<rect class="st0" width="2000" height="1000"/>
<path class="st3" d="M967.1,462.3c9.4,0,16.9,4.7,20.1,13.1h-6.8c-2.4-5.2-7-8.1-13.3-8.1c-9.1,0-15.9,6.6-15.9,17.2
	c0,10.6,6.8,17.2,15.9,17.2c6.3,0,10.9-2.9,13.3-8.1h6.8c-3.2,8.3-10.7,13-20.1,13c-12.1,0-21.6-9.1-21.6-22.1
	C945.5,471.5,955,462.3,967.1,462.3z"/>
<path class="st3" d="M1025.2,467.5h-17.7V482h15.8v4.7h-15.8v14.9h17.7v4.7h-23.3v-43.4h23.3V467.5z"/>
<path class="st3" d="M1074.1,462.8v43.4h-5.7l-22.8-34.5v34.5h-5.7v-43.4h5.7l22.8,34.5v-34.5H1074.1z"/>
<path class="st3" d="M1087.3,462.9h29.4v4.6h-11.8v38.8h-5.7v-38.8h-11.9V462.9z"/>
<path class="st3" d="M1143.8,462.9c10.2,0,15.1,5.7,15.1,12.8c0,5.5-3,10.8-10.3,12.4l10.9,18.2h-6.8l-10.3-17.7h-6.8v17.7h-5.7
	v-43.4H1143.8z M1143.8,467.5h-8.3V484h8.3c6.4,0,9.2-3.5,9.2-8.3C1153,470.7,1150.3,467.5,1143.8,467.5z"/>
<path class="st3" d="M1199.5,496.6h-18.9l-3.5,9.6h-6l15.7-43.1h6.5l15.6,43.1h-6L1199.5,496.6z M1190,470.1l-7.8,21.9h15.7
	L1190,470.1z"/>
<path class="st3" d="M1227.7,462.9v38.8h15.2v4.6H1222v-43.4H1227.7z"/>
<g>
	<path class="st1" d="M899.5,451.5l-10,8.7l-32.3,28.3l-6.6,5.8L834.9,508l-15.7-13.8l-6.6-5.8l-17.8-15.7l7.7-7.7h-22.2v22.3
		l8.6-8.7l23.7,21.4l-45.4,39.8h-1.3v-45.5h-8.7v54.2h155.5v-97H899.5z M780.3,539.8l38.8-34l15.7,13.8l15.7-13.8l38.9,34H780.3z
		 M904,539.8h-1.3L857.2,500l45.5-39.8h1.3V539.8z"/>
</g>
<path class="st3" d="M967.1,462.3c9.4,0,16.9,4.7,20.1,13.1h-6.8c-2.4-5.2-7-8.1-13.3-8.1c-9.1,0-15.9,6.6-15.9,17.2
	c0,10.6,6.8,17.2,15.9,17.2c6.3,0,10.9-2.9,13.3-8.1h6.8c-3.2,8.3-10.7,13-20.1,13c-12.1,0-21.6-9.1-21.6-22.1
	C945.5,471.5,955,462.3,967.1,462.3z"/>
<path class="st3" d="M1025.2,467.5h-17.7V482h15.8v4.7h-15.8v14.9h17.7v4.7h-23.3v-43.4h23.3V467.5z"/>
<path class="st3" d="M1074.1,462.8v43.4h-5.7l-22.8-34.5v34.5h-5.7v-43.4h5.7l22.8,34.5v-34.5H1074.1z"/>
<path class="st3" d="M1087.3,462.9h29.4v4.6h-11.8v38.8h-5.7v-38.8h-11.9V462.9z"/>
<path class="st3" d="M1143.8,462.9c10.2,0,15.1,5.7,15.1,12.8c0,5.5-3,10.8-10.3,12.4l10.9,18.2h-6.8l-10.3-17.7h-6.8v17.7h-5.7
	v-43.4H1143.8z M1143.8,467.5h-8.3V484h8.3c6.4,0,9.2-3.5,9.2-8.3C1153,470.7,1150.3,467.5,1143.8,467.5z"/>
<path class="st3" d="M1199.5,496.6h-18.9l-3.5,9.6h-6l15.7-43.1h6.5l15.6,43.1h-6L1199.5,496.6z M1190,470.1l-7.8,21.9h15.7
	L1190,470.1z"/>
<path class="st3" d="M1227.7,462.9v38.8h15.2v4.6H1222v-43.4H1227.7z"/>
<g>
	<path class="st5" d="M945.1,520.5h2.1l7.5,16.7l7.5-16.7h2.1v19.3h-2v-15.4l-6.9,15.4h-1.4l-6.9-15.4v15.4h-2V520.5z"/>
	<path class="st5" d="M984.2,535.2h-8.9l-1.7,4.6h-2.1l7.1-19.3h2.2l7.1,19.3h-2.1L984.2,535.2z M979.7,523l-3.9,10.6h7.7L979.7,523
		z"/>
	<path class="st5" d="M995.3,520.2h2v19.6h-2V520.2z"/>
	<path class="st5" d="M1007.9,520.2v18h7v1.6h-9v-19.6H1007.9z"/>
	<path class="st5" d="M1021.9,520.2h2v19.6h-2V520.2z"/>
	<path class="st5" d="M1047.2,520.2v19.6h-2l-10.8-16.5v16.5h-2v-19.6h2l10.8,16.4v-16.4H1047.2z"/>
	<path class="st5" d="M1073.6,526h-2.3c-1.1-2.5-3.5-4.1-6.6-4.1c-4.3,0-7.7,3.1-7.7,8.2s3.3,8.2,7.7,8.2c4.1,0,7.1-2.8,7.4-7.2
		h-8.2v-1.6h10.3v1.4c-0.3,5.2-4.2,9.2-9.5,9.2c-5.5,0-9.7-4.1-9.7-10c0-5.9,4.2-10,9.7-10C1068.9,520,1072.2,522.2,1073.6,526z"/>
	<path class="st5" d="M1099.8,540c-3.9,0-6.5-2.2-6.6-5.2h2.1c0.2,1.6,1.4,3.6,4.5,3.6c2.7,0,4.3-1.6,4.3-3.6
		c0-5.8-10.8-2.1-10.8-9.5c0-3,2.5-5.2,6.3-5.2c3.7,0,6,2.1,6.3,4.8h-2.1c-0.2-1.4-1.5-3.1-4.3-3.1c-2.3,0-4.2,1.2-4.2,3.5
		c0,5.7,10.8,2.2,10.8,9.5C1106.1,537.3,1103.9,540,1099.8,540z"/>
	<path class="st5" d="M1124.3,521.8h-8.3v7.3h7.4v1.6h-7.4v7.4h8.3v1.6h-10.2v-19.6h10.2V521.8z"/>
	<path class="st5" d="M1138.2,520.2c4.5,0,6.7,2.5,6.7,5.7c0,2.7-1.5,5-4.8,5.6l5,8.3h-2.4l-4.8-8.2h-3.6v8.2h-2v-19.6H1138.2z
		 M1138.2,521.9h-3.9v8.2h3.9c3.2,0,4.6-1.7,4.6-4.1C1142.9,523.5,1141.5,521.9,1138.2,521.9z"/>
	<path class="st5" d="M1166.4,520.2h2.1l-7.4,19.6h-2.2l-7.4-19.6h2.1l6.4,17.4L1166.4,520.2z"/>
	<path class="st5" d="M1175.6,520.2h2v19.6h-2V520.2z"/>
	<path class="st5" d="M1194.9,520c4.4,0,7.6,2.2,9,5.9h-2.3c-1.1-2.6-3.4-4.2-6.7-4.2c-4.3,0-7.6,3.2-7.6,8.3c0,5.1,3.3,8.3,7.6,8.3
		c3.3,0,5.6-1.6,6.7-4.2h2.3c-1.4,3.7-4.6,5.9-9,5.9c-5.4,0-9.6-4.1-9.6-10S1189.5,520,1194.9,520z"/>
	<path class="st5" d="M1222.2,521.8h-8.3v7.3h7.4v1.6h-7.4v7.4h8.3v1.6H1212v-19.6h10.2V521.8z"/>
	<path class="st5" d="M1236.2,540c-3.9,0-6.5-2.2-6.6-5.2h2.1c0.2,1.6,1.4,3.6,4.5,3.6c2.7,0,4.3-1.6,4.3-3.6
		c0-5.8-10.8-2.1-10.8-9.5c0-3,2.5-5.2,6.3-5.2c3.7,0,6,2.1,6.3,4.8h-2.1c-0.2-1.4-1.5-3.1-4.3-3.1c-2.3,0-4.2,1.2-4.2,3.5
		c0,5.7,10.8,2.2,10.8,9.5C1242.5,537.3,1240.4,540,1236.2,540z"/>
</g>
</svg>
