<?xml version="1.0" encoding="utf-8"?>
<!-- Generator: Adobe Illustrator 26.3.1, SVG Export Plug-In . SVG Version: 6.00 Build 0)  -->
<svg version="1.1" id="Layer_1" xmlns="http://www.w3.org/2000/svg" xmlns:xlink="http://www.w3.org/1999/xlink" x="0px" y="0px"
	 viewBox="0 0 500 500" style="enable-background:new 0 0 500 500;" xml:space="preserve">
<g>
	<path d="M248.8,11.2c32.4,0,63.8,6.3,93.4,18.9c28.6,12.1,54.2,29.4,76.3,51.4c22,22,39.4,47.7,51.4,76.3
		c12.5,29.6,18.9,61,18.9,93.4s-6.3,63.8-18.9,93.4c-12.1,28.6-29.4,54.2-51.4,76.3c-22,22-47.7,39.4-76.3,51.4
		c-29.6,12.5-61,18.9-93.4,18.9s-63.8-6.3-93.4-18.9c-28.6-12.1-54.2-29.4-76.3-51.4c-22-22-39.4-47.7-51.4-76.3
		c-12.5-29.6-18.9-61-18.9-93.4s6.3-63.8,18.9-93.4c12.1-28.6,29.4-54.2,51.4-76.3c22-22,47.7-39.4,76.3-51.4
		C185,17.6,216.4,11.2,248.8,11.2 M248.8,1.2c-138.1,0-250,111.9-250,250s111.9,250,250,250s250-111.9,250-250S386.9,1.2,248.8,1.2
		L248.8,1.2z"/>
</g>
<g>
	<path d="M160.6,113.7l-7.2,6.1l-23.7-27.9l14.5,35.7l-32.9-20l23.7,27.9l-7.1,6L85.7,91.9l7.1-6l32.9,20l-14.5-35.7l7.2-6.1
		L160.6,113.7z"/>
	<path d="M156.3,79.2c-4.9-11.6-6.6-20.5-5-26.5s4.8-10.1,9.8-12.2c4.3-1.8,8.5-1.9,12.6-0.3c4.1,1.6,7.2,4.6,9.3,8.9l-8.7,3.7
		c-0.9-2-2.3-3.3-4.1-4s-3.8-0.6-5.9,0.3c-2.4,1-3.9,3.3-4.4,7c-0.6,3.7,1.1,10.1,5.1,19.4c4.1,9.7,7.7,15.6,10.6,17.6
		c3,2,5.6,2.4,7.9,1.3c2.1-0.9,3.5-2.2,4.3-4s0.8-3.7,0-5.8l8.7-3.7c1.6,4.5,1.6,8.8-0.1,12.9c-1.7,4.1-4.7,7-9,8.8
		c-5,2.1-10.1,1.6-15.5-1.4C166.3,98.2,161.2,90.9,156.3,79.2z"/>
	<path d="M245.3,88.5l-32.9,4l-7.8-64.7l9.3-1.1l6.7,55.6l23.6-2.9L245.3,88.5z"/>
	<path d="M290.2,93.8l-32.8-5l9.9-64.4l30.3,4.7l-1.4,9l-21-3.2L272.7,51l13.4,2.1l-1.4,8.8l-13.4-2.1L268,81.1l23.5,3.6L290.2,93.8
		z"/>
	<path d="M335.9,113.1l-8.6-4l3.4-18.1l-12.6-5.9l-11.5,14.3l-8.5-3.9l42.2-52.2l8.3,3.9L335.9,113.1z M332.5,81.8l3.6-19L324,77.9
		L332.5,81.8z"/>
	<path d="M368.9,141.2l-6.8-6l13.6-43.1l-27.3,31.2l-7-6.1l42.9-49l7,6.1l-13.5,42.5l26.9-30.7l7.1,6.2L368.9,141.2z"/>
</g>
<g>
	<path d="M88.3,362.8c9.6-8.2,17.6-12.4,23.8-12.7c6.2-0.3,11.1,1.6,14.5,5.7c3,3.6,4.4,7.5,4.1,12c-0.3,4.4-2.2,8.3-5.7,11.6
		l-6.1-7.2c1.6-1.5,2.5-3.2,2.6-5.1s-0.6-3.8-2.1-5.5c-1.7-2-4.3-2.7-8-2.1c-3.7,0.5-9.3,4.1-17.1,10.6c-8.1,6.8-12.6,12-13.6,15.4
		s-0.6,6.1,1.1,7.9c1.5,1.7,3.2,2.7,5.1,2.9c1.9,0.2,3.8-0.3,5.5-1.7l6.1,7.2c-3.8,2.9-7.9,4.1-12.3,3.7s-8.1-2.4-11.1-6
		c-3.5-4.1-4.6-9.2-3.2-15.3C73.2,378,78.7,370.9,88.3,362.8z"/>
	<path d="M121.7,440.8c-5.5-3.7-8-8.8-7.5-15.2c0.5-6.4,4-14.3,10.3-23.6c6.2-9.2,12.2-15.3,17.9-18.3c5.7-2.9,11.4-2.6,16.9,1.2
		c5.5,3.7,8,8.8,7.5,15.2c-0.6,6.4-4,14.2-10.2,23.5c-6.3,9.4-12.3,15.5-18,18.4S127.2,444.5,121.7,440.8z M126.8,433.2
		c2.9,2,6.1,1.8,9.7-0.6c3.5-2.5,7.7-7.2,12.5-14.3c4.7-7,7.5-12.5,8.4-16.6s-0.2-7.1-3.1-9.1c-3-2-6.2-1.8-9.6,0.6
		c-3.5,2.4-7.5,7-12.2,14c-4.8,7.1-7.6,12.8-8.6,17C122.8,428.2,123.8,431.3,126.8,433.2z"/>
	<path d="M205.6,475.2l-9.1-2.6l10.2-35.1L185,469.2l-1.4-38.5l-10.2,35.1l-9-2.6l18.2-62.5l9,2.6l1.4,38.5l21.8-31.7l9.1,2.6
		L205.6,475.2z"/>
	<path d="M253.2,447.6l-8.9,0.2l0.7,30.6l-9.3,0.2l-1.4-65.1l19.4-0.4c5.1-0.1,9.3,1.4,12.5,4.5s4.9,7.3,5,12.5
		c0,4.7-1.4,8.7-4.4,12.2C263.8,445.6,259.3,447.4,253.2,447.6z M262,430c-0.1-2.5-0.9-4.4-2.5-5.8s-3.6-2.1-6.2-2l-9.6,0.2l0.3,16
		l9.6-0.2c2.3-0.1,4.3-0.9,5.9-2.5C261.2,434.2,262,432.2,262,430z"/>
	<path d="M337.3,461.4l-9,2.8l-9.7-15.6l-13.3,4.2l1.2,18.3l-8.9,2.8l-4.1-67l8.7-2.8L337.3,461.4z M313.7,440.6l-10.2-16.5
		l1.3,19.3L313.7,440.6z"/>
	<path d="M390.2,429.8l-7.5,5l-38.2-24.2l23.1,34.4l-7.7,5.2l-36.3-54.1l7.7-5.2l37.5,24L346.1,381l7.8-5.3L390.2,429.8z"/>
	<path d="M386,339.7l16.7,35.5l22.5,19l-6,7.1l-22.5-19l-37.6-10.8l6.3-7.5l25.1,6.8l-11-23.4L386,339.7z"/>
</g>
<g>
	<path d="M136.8,251.3c0,11-1.8,19.4-5.3,25.3c-3.6,5.9-8.8,8.8-15.8,8.8h-17v-68.2h16.9c7,0,12.3,2.9,15.8,8.8
		C135,231.9,136.8,240.3,136.8,251.3z M127.3,251.1c0-8.6-1.1-14.9-3.3-18.7c-2.2-3.8-5.1-5.8-8.8-5.8h-7v24.5v24.5h7
		c3.7,0,6.6-1.9,8.8-5.8C126.2,266.2,127.3,259.9,127.3,251.1z"/>
	<path d="M191.5,285.5h-34.7v-68.2h32.1v9.6h-22.3V244h14.2v9.4h-14.2v22.5h25L191.5,285.5L191.5,285.5z"/>
	<path d="M249.6,266.3c0,5.4-1.7,10.1-5,14.2s-7.9,6.2-13.8,6.2c-5.4,0-9.9-2.1-13.6-6.3c-3.7-4.2-5.6-9.2-5.6-15h9.4
		c0,3.6,0.9,6.5,2.7,8.6s4.1,3.2,6.9,3.2c2.6,0,4.8-1,6.7-3.1s2.8-4.5,2.8-7.3c-0.1-2.2-0.9-4.6-2.5-7.1s-4.5-5.1-8.8-7.8
		c-4.9-3.1-8.5-6.2-10.7-9.3s-3.4-6-3.4-8.7c-0.1-4.9,1.5-9,4.7-12.5c3.2-3.4,7.3-5.2,12.2-5.2c5.2,0,9.5,1.7,12.9,5.1
		c3.4,3.4,5,7.6,5,12.5h-10c0.1-2.6-0.8-4.7-2.5-6.2s-3.5-2.2-5.4-2c-2.2,0.1-4,1-5.2,2.5s-1.8,3.4-1.7,5.6c0.1,1.4,0.7,2.8,1.8,4.2
		c1.2,1.4,3.7,3.4,7.5,6.1c5.4,3.7,9.4,7.3,11.8,10.8C248.3,258.1,249.5,262,249.6,266.3z"/>
	<path d="M281.3,285.5h-9.6v-68.2h9.6V285.5z"/>
	<path d="M341.5,261.3c0,7.9-1.4,14.1-4.3,18.6s-7.1,6.8-12.7,6.8c-7,0-12.3-2.7-15.8-8.1s-5.3-14.4-5.3-27.1
		c0.1-13.2,2.2-22.4,6.1-27.6c3.9-5.2,8.7-7.8,14.3-7.8c4.9,0,9,1.6,12.3,4.8s5.1,7.4,5.4,12.4h-9.9c-0.1-2.3-0.8-4.2-2.3-5.6
		c-1.5-1.4-3.4-2.1-5.8-2.1c-2.7-0.1-5,1.2-6.9,3.8s-3,9.9-3.3,21.9c0.1,11.4,1.2,18.6,3.3,21.5c2.1,3,4.6,4.3,7.5,4.1
		c2.6,0.1,4.5-1,5.9-3.5c1.3-2.5,1.9-6.3,1.7-11.6H324v-9.6h17.5V261.3z"/>
	<path d="M398.5,285.5H389l-19-43.4v43.4h-9.8v-68.2h9.8l18.6,42.8v-42.8h9.9V285.5z"/>
</g>
</svg>
